<?xml version="1.0" encoding="UTF-8" standalone="no"?>
<!-- Created with Inkscape (http://www.inkscape.org/) -->

<svg
   xmlns:dc="http://purl.org/dc/elements/1.1/"
   xmlns:cc="http://creativecommons.org/ns#"
   xmlns:rdf="http://www.w3.org/1999/02/22-rdf-syntax-ns#"
   xmlns:svg="http://www.w3.org/2000/svg"
   xmlns="http://www.w3.org/2000/svg"
   xmlns:xlink="http://www.w3.org/1999/xlink"
   xmlns:sodipodi="http://sodipodi.sourceforge.net/DTD/sodipodi-0.dtd"
   xmlns:inkscape="http://www.inkscape.org/namespaces/inkscape"
   width="110"
   height="20"
   id="svg5395"
   version="1.1"
   inkscape:version="0.48.2 r9819"
   sodipodi:docname="largeicons.svg"
   inkscape:export-filename="G:\xampplite\htdocs\public_html\wp-content\themes\cowobo\images\largeicons.png"
   inkscape:export-xdpi="90.05455"
   inkscape:export-ydpi="90.05455">
  <defs
     id="defs5397">
    <linearGradient
       inkscape:collect="always"
       xlink:href="#linearGradient18783"
       id="linearGradient19873"
       gradientUnits="userSpaceOnUse"
       gradientTransform="matrix(0.06279544,0,0,1,68.484264,-550.18385)"
       x1="734.125"
       y1="1601.303"
       x2="734.125"
       y2="1587.2242" />
    <linearGradient
       inkscape:collect="always"
       id="linearGradient18783">
      <stop
         style="stop-color:#dfdfdf;stop-opacity:1;"
         offset="0"
         id="stop18785" />
      <stop
         style="stop-color:#dfdfdf;stop-opacity:0;"
         offset="1"
         id="stop18787" />
    </linearGradient>
  </defs>
  <sodipodi:namedview
     id="base"
     pagecolor="#ffffff"
     bordercolor="#666666"
     borderopacity="1.0"
     inkscape:pageopacity="0.0"
     inkscape:pageshadow="2"
     inkscape:zoom="2.8284271"
     inkscape:cx="99.989734"
     inkscape:cy="10.342005"
     inkscape:document-units="px"
     inkscape:current-layer="layer1"
     showgrid="false"
     inkscape:window-width="1366"
     inkscape:window-height="706"
     inkscape:window-x="-8"
     inkscape:window-y="-8"
     inkscape:window-maximized="1"
     borderlayer="true"
     showborder="true"
     inkscape:showpageshadow="false"
     showguides="true"
     inkscape:guide-bbox="true"
     inkscape:snap-global="false">
    <sodipodi:guide
       orientation="1,0"
       position="20,41.964286"
       id="guide5434" />
    <sodipodi:guide
       orientation="1,0"
       position="30,41.428571"
       id="guide5436" />
    <sodipodi:guide
       orientation="1,0"
       position="50,40.714286"
       id="guide5438" />
    <sodipodi:guide
       orientation="1,0"
       position="60,40.535714"
       id="guide5440" />
    <sodipodi:guide
       orientation="0,1"
       position="71.071429,20.178571"
       id="guide5820" />
  </sodipodi:namedview>
  <metadata
     id="metadata5400">
    <rdf:RDF>
      <cc:Work
         rdf:about="">
        <dc:format>image/svg+xml</dc:format>
        <dc:type
           rdf:resource="http://purl.org/dc/dcmitype/StillImage" />
        <dc:title></dc:title>
      </cc:Work>
    </rdf:RDF>
  </metadata>
  <g
     inkscape:label="Layer 1"
     inkscape:groupmode="layer"
     id="layer1"
     transform="translate(0,-1032.3622)">
    <g
       inkscape:export-ydpi="90.05455"
       inkscape:export-xdpi="90.05455"
       inkscape:export-filename="G:\xampplite\htdocs\public_html\wp-content\themes\cowobo\images\rsslarge2.png"
       id="g3896"
       transform="matrix(0.95715878,0,0,0.95715878,-134.5132,45.447316)"
       style="stroke:#494949;stroke-opacity:1">
      <rect
         ry="4.5381947"
         y="1032.2274"
         x="141.68661"
         height="18.526512"
         width="18.557344"
         id="rect3898"
         style="fill:none;stroke:#494949;stroke-width:1.85381281;stroke-linecap:round;stroke-miterlimit:4;stroke-opacity:1;stroke-dasharray:none" />
      <path
         transform="matrix(0.03594944,0,0,0.03661371,126.80739,1056.032)"
         d="m 570.63516,-275.90704 a 23.688078,23.688078 0 1 1 -47.37616,0 23.688078,23.688078 0 1 1 47.37616,0 z"
         sodipodi:ry="23.688078"
         sodipodi:rx="23.688078"
         sodipodi:cy="-275.90704"
         sodipodi:cx="546.94708"
         id="path3900"
         style="fill:none;stroke:#494949;stroke-width:51.09730148;stroke-miterlimit:4;stroke-opacity:1;stroke-dasharray:none"
         sodipodi:type="arc" />
      <path
         inkscape:transform-center-y="-8.3810579"
         inkscape:transform-center-x="-7.4367032"
         sodipodi:open="true"
         sodipodi:end="6.2831852"
         sodipodi:start="4.6927999"
         transform="matrix(1.0180653,0,0,1.0368772,-187.64852,1272.2468)"
         d="m 326.55185,-227.64486 a 11.22532,11.22532 0 0 1 11.4452,11.22317"
         sodipodi:ry="11.22532"
         sodipodi:rx="11.22532"
         sodipodi:cy="-216.42169"
         sodipodi:cx="326.77173"
         id="path3902"
         style="fill:none;stroke:#494949;stroke-width:1.80432343;stroke-linecap:butt;stroke-miterlimit:4;stroke-opacity:1;stroke-dasharray:none"
         sodipodi:type="arc" />
      <path
         sodipodi:type="arc"
         style="fill:none;stroke:#494949;stroke-width:2.92833281;stroke-linecap:butt;stroke-miterlimit:4;stroke-opacity:1;stroke-dasharray:none"
         id="path3904"
         sodipodi:cx="326.77173"
         sodipodi:cy="-216.42169"
         sodipodi:rx="11.22532"
         sodipodi:ry="11.22532"
         d="m 326.44936,-227.64238 a 11.22532,11.22532 0 0 1 11.54693,11.35157"
         transform="matrix(0.62729184,0,0,0.63888293,-59.811319,1185.8598)"
         sodipodi:start="4.6836667"
         sodipodi:end="6.2948451"
         sodipodi:open="true"
         inkscape:transform-center-x="-4.5822156"
         inkscape:transform-center-y="-5.1640462" />
    </g>
    <path
       sodipodi:nodetypes="cccc"
       inkscape:connector-curvature="0"
       id="path4890"
       d="m 30.43218,1032.324 9.428325,10.017 9.559716,-10.0174 z"
       style="opacity:0.8;fill:#000000;fill-opacity:1;stroke:none" />
    <path
       style="fill:#ffffff;fill-opacity:1;stroke:none"
       d="m 35.379659,1032.3238 4.486185,4.7663 4.548697,-4.7665 z"
       id="path4892"
       inkscape:connector-curvature="0"
       sodipodi:nodetypes="cccc" />
    <path
       style="opacity:0.8;fill:#000000;fill-opacity:1;stroke:none"
       d="m 30.44992,1052.4113 9.428325,-10.017 9.559716,10.0175 z"
       id="path4896"
       inkscape:connector-curvature="0"
       sodipodi:nodetypes="cccc" />
    <path
       sodipodi:nodetypes="cccc"
       inkscape:connector-curvature="0"
       id="path4898"
       d="m 35.397399,1052.4116 4.486185,-4.7664 4.548697,4.7666 z"
       style="fill:#ffffff;fill-opacity:1;stroke:none" />
    <path
       sodipodi:nodetypes="cccc"
       inkscape:connector-curvature="0"
       id="path4902"
       d="m 20.303227,1052.4521 9.573836,-10.0201 -9.574279,-10.16 z"
       style="opacity:0.8;fill:#000000;fill-opacity:1;stroke:none" />
    <path
       style="fill:#ffffff;fill-opacity:1;stroke:none"
       d="m 20.302999,1047.1941 4.555411,-4.7679 -4.555626,-4.8342 z"
       id="path4904"
       inkscape:connector-curvature="0"
       sodipodi:nodetypes="cccc" />
    <path
       style="opacity:0.8;fill:#000000;fill-opacity:1;stroke:none"
       d="m 59.976589,1052.4521 -9.573836,-10.0201 9.574279,-10.16 z"
       id="path4908"
       inkscape:connector-curvature="0"
       sodipodi:nodetypes="cccc" />
    <path
       sodipodi:nodetypes="cccc"
       inkscape:connector-curvature="0"
       id="path4910"
       d="m 59.976817,1047.1941 -4.555411,-4.7679 4.555626,-4.8342 z"
       style="fill:#ffffff;fill-opacity:1;stroke:none" />
    <g
       style="stroke:#e1e1e1;stroke-opacity:1"
       transform="matrix(0.95715878,0,0,0.95715878,-74.2632,45.447316)"
       id="g6408"
       inkscape:export-filename="G:\xampplite\htdocs\public_html\wp-content\themes\cowobo\images\rsslarge2.png"
       inkscape:export-xdpi="90.05455"
       inkscape:export-ydpi="90.05455">
      <rect
         style="fill:none;stroke:#e1e1e1;stroke-width:1.85381281;stroke-linecap:round;stroke-miterlimit:4;stroke-opacity:1;stroke-dasharray:none"
         id="rect6410"
         width="18.557344"
         height="18.526512"
         x="141.68661"
         y="1032.2274"
         ry="4.5381947" />
      <path
         sodipodi:type="arc"
         style="fill:none;stroke:#e1e1e1;stroke-width:51.09730148;stroke-miterlimit:4;stroke-opacity:1;stroke-dasharray:none"
         id="path6412"
         sodipodi:cx="546.94708"
         sodipodi:cy="-275.90704"
         sodipodi:rx="23.688078"
         sodipodi:ry="23.688078"
         d="m 570.63516,-275.90704 a 23.688078,23.688078 0 1 1 -47.37616,0 23.688078,23.688078 0 1 1 47.37616,0 z"
         transform="matrix(0.03594944,0,0,0.03661371,126.80739,1056.032)" />
      <path
         sodipodi:type="arc"
         style="fill:none;stroke:#e1e1e1;stroke-width:1.80432343;stroke-linecap:butt;stroke-miterlimit:4;stroke-opacity:1;stroke-dasharray:none"
         id="path6414"
         sodipodi:cx="326.77173"
         sodipodi:cy="-216.42169"
         sodipodi:rx="11.22532"
         sodipodi:ry="11.22532"
         d="m 326.55185,-227.64486 a 11.22532,11.22532 0 0 1 11.4452,11.22317"
         transform="matrix(1.0180653,0,0,1.0368772,-187.64852,1272.2468)"
         sodipodi:start="4.6927999"
         sodipodi:end="6.2831852"
         sodipodi:open="true"
         inkscape:transform-center-x="-7.4367032"
         inkscape:transform-center-y="-8.3810579" />
      <path
         inkscape:transform-center-y="-5.1640462"
         inkscape:transform-center-x="-4.5822156"
         sodipodi:open="true"
         sodipodi:end="6.2948451"
         sodipodi:start="4.6836667"
         transform="matrix(0.62729184,0,0,0.63888293,-59.811319,1185.8598)"
         d="m 326.44936,-227.64238 a 11.22532,11.22532 0 0 1 11.54693,11.35157"
         sodipodi:ry="11.22532"
         sodipodi:rx="11.22532"
         sodipodi:cy="-216.42169"
         sodipodi:cx="326.77173"
         id="path6416"
         style="fill:none;stroke:#e1e1e1;stroke-width:2.92833281;stroke-linecap:butt;stroke-miterlimit:4;stroke-opacity:1;stroke-dasharray:none"
         sodipodi:type="arc" />
    </g>
    <path
       style="fill:none;stroke:#bababa;stroke-width:1px;stroke-linecap:butt;stroke-linejoin:miter;stroke-opacity:1"
       d="m 86.60802,1032.6195 c 0,0 -1.65349,-0.1714 -1.67938,1.3259 -0.0276,1.5932 0,5.3917 0,5.3917 l -4.02481,3.4471 3.95538,3.3367 0.0221,3.9111 c 0,0 0.44194,1.591 1.85615,1.591 l 17.45286,0 c 0,0 1.75,0.1424 1.75,-1.6701 0,-1.8125 0,-15.8125 0,-15.8125 0,0 -0.21875,-1.4375 -2.09375,-1.5 -2.74847,-0.092 -17.23854,-0.021 -17.23854,-0.021 z"
       id="path18791"
       inkscape:connector-curvature="0"
       sodipodi:nodetypes="csccccccscscc" />
    <rect
       ry="0"
       y="1032.3032"
       x="110.84761"
       height="19.75"
       width="3.722574"
       id="rect18869"
       style="fill:url(#linearGradient19873);fill-opacity:1;stroke:none"
       rx="0"
       inkscape:export-filename="G:\xampplite\htdocs\public_html\wp-content\themes\cowobo\images\buttonshade.png"
       inkscape:export-xdpi="90.05455"
       inkscape:export-ydpi="90.05455" />
    <path
       inkscape:export-ydpi="90.05455"
       inkscape:export-xdpi="90.05455"
       inkscape:export-filename="G:\xampplite\htdocs\public_html\wp-content\themes\cowobo\images\smallangel.png"
       sodipodi:nodetypes="csscsssscsscscssscccsccccccccccccsscscsscsscsscccccsccccccscc"
       inkscape:connector-curvature="0"
       id="path5102"
       d="m 135.40208,1038.7427 c 0,0 0.27382,-7.197 5.85902,-6.6896 4.93076,0.4481 5.16984,0.9383 5.31346,1.3442 0.17277,0.489 -1.93218,1.4933 -1.93218,1.4933 0,0 1.21278,0.03 1.31114,0.5053 0.0774,0.3752 -1.79418,1.5854 -3.10528,1.6603 -1.31118,0.075 2.16472,0.32 1.51812,1.1945 -0.276,0.3736 -3.24329,1.4934 -5.31346,0.7469 -2.0702,-0.7469 -1.51814,0.6719 -1.51814,0.6719 0,0 2.63923,1.6196 2.13918,7.3178 -0.37291,4.2493 -1.32805,5.3215 -3.72636,5.8241 -1.89121,0.3963 -3.66091,-0.1545 -5.45144,-0.3735 0,0 2.69122,2.1655 2.48418,2.539 -0.20716,0.3731 -0.27602,0.7464 -0.27602,0.7464 0,0 2.12194,0.7282 1.72519,1.4937 -0.2265,0.4367 -3.10527,4.4799 -3.51928,4.4799 -0.41405,0 -1.2422,-1.3439 -0.62111,-2.9121 0.62111,-1.5678 -1.67,1.7235 -3.13237,2.0918 -1.8772,-1.0313 0.96044,-3.8145 0.96044,-3.8145 l -2.31347,-4.7731 c 0,0 -0.75903,-2.016 1.38011,-2.6886 2.13922,-0.672 6.41762,-1.344 6.41762,-1.344 -0.52701,-0.091 -0.96478,-0.536 -1.10412,-2.1653 0,0 -4.01221,-0.03 -5.37902,-0.091 -0.30734,0.493 -1.23793,0.2192 -1.23793,0.2192 l 1.95903,0.3103 c 0.30516,0 -0.12517,1.0543 -1.05947,0.923 l -5.29213,-0.8069 c -0.22368,-0.084 -0.27444,-0.095 -0.48739,-0.4061 l -3.90187,-5.7572 c -0.47252,-0.6534 0.0982,-1.3395 0.27133,-1.0407 l 4.13815,6.0516 2.18851,0.3561 c 0,0 1.40044,-1.1676 2.43554,-1.1676 1.0351,0 1.18974,-0.1594 2.22483,-0.3072 1.03504,-0.1494 3.74376,-0.6098 3.74376,-0.6098 0,0 -0.24061,-0.8185 -0.22149,-1.5547 0.0203,-0.736 0.2732,-1.6808 -0.34795,-2.0916 -0.37955,-0.3731 -1.98879,1.5422 -2.82925,1.195 -0.4663,-0.1945 -0.35157,-0.6053 -0.70735,-0.9332 -0.3431,-0.3164 1.22328,-0.5066 1.01784,-0.9333 -0.22084,0.1462 -1.00058,0.6343 -1.31109,0.3732 -0.15535,-0.1312 -0.0425,-0.1444 -0.0636,-0.3322 -0.0219,-0.1883 -0.1754,-0.5467 -0.1754,-0.5467 0,0 -0.79128,0.3233 -0.99678,0 -0.0737,-0.1196 0.43362,-0.7465 0.63164,-1.1111 0.19788,-0.3642 -0.0281,-0.6788 -0.0281,-0.6788 -0.29139,-0.5317 -0.41723,-1.2811 0.0442,-1.8775 -0.55083,0.03 -1.1457,-0.084 -1.79413,-0.373 0.54406,-0.1661 1.06722,-0.3404 1.06958,-0.7471 -0.52171,-0.1296 -0.88904,-0.3282 -1.13754,-0.6791 0,0 1.70816,-0.075 1.87293,-0.1444 0.39262,-0.1595 0.42506,-0.7356 0.313,-1.0364 0.95659,0.4439 1.35296,0.6441 2.34316,0.5723 0.84538,-0.2444 1.08968,-0.2475 1.37006,-0.7302 0.93976,0.8535 0.47491,1.2904 1.58296,1.8847 0.88374,0.7823 0.9694,1.3203 1.31531,2.1473 -0.43319,-0.3564 -0.79687,-0.2977 -1.13865,-0.113 0,0 0.33887,1.3411 0.45105,1.6121 0.11281,0.2724 2.03974,1.0828 2.03974,1.0828 z"
       style="fill:#f8f8f8;fill-opacity:1;stroke:none;display:inline" />
  </g>
</svg>
