<?xml version="1.0" encoding="UTF-8" standalone="no"?>
<!-- Created with Inkscape (http://www.inkscape.org/) -->

<svg
   xmlns:dc="http://purl.org/dc/elements/1.1/"
   xmlns:cc="http://creativecommons.org/ns#"
   xmlns:rdf="http://www.w3.org/1999/02/22-rdf-syntax-ns#"
   xmlns:svg="http://www.w3.org/2000/svg"
   xmlns="http://www.w3.org/2000/svg"
   xmlns:sodipodi="http://sodipodi.sourceforge.net/DTD/sodipodi-0.dtd"
   xmlns:inkscape="http://www.inkscape.org/namespaces/inkscape"
   width="100"
   height="40"
   id="svg5395"
   version="1.1"
   inkscape:version="0.48.2 r9819"
   sodipodi:docname="largeicons.svg"
   inkscape:export-filename="G:\xampplite\htdocs\public_html\wp-content\themes\cowobo\images\largeicons.png"
   inkscape:export-xdpi="90.05455"
   inkscape:export-ydpi="90.05455">
  <defs
     id="defs5397" />
  <sodipodi:namedview
     id="base"
     pagecolor="#ffffff"
     bordercolor="#666666"
     borderopacity="1.0"
     inkscape:pageopacity="0.0"
     inkscape:pageshadow="2"
     inkscape:zoom="8"
     inkscape:cx="47.834263"
     inkscape:cy="17.947622"
     inkscape:document-units="px"
     inkscape:current-layer="layer1"
     showgrid="false"
     inkscape:window-width="1366"
     inkscape:window-height="706"
     inkscape:window-x="-8"
     inkscape:window-y="-8"
     inkscape:window-maximized="1"
     borderlayer="true"
     showborder="true"
     inkscape:showpageshadow="false"
     showguides="true"
     inkscape:guide-bbox="true"
     inkscape:snap-global="false">
    <sodipodi:guide
       orientation="1,0"
       position="20,41.964286"
       id="guide5434" />
    <sodipodi:guide
       orientation="1,0"
       position="30,41.428571"
       id="guide5436" />
    <sodipodi:guide
       orientation="1,0"
       position="50,40.714286"
       id="guide5438" />
    <sodipodi:guide
       orientation="1,0"
       position="60,40.535714"
       id="guide5440" />
    <sodipodi:guide
       orientation="0,1"
       position="71.071429,20.178571"
       id="guide5820" />
  </sodipodi:namedview>
  <metadata
     id="metadata5400">
    <rdf:RDF>
      <cc:Work
         rdf:about="">
        <dc:format>image/svg+xml</dc:format>
        <dc:type
           rdf:resource="http://purl.org/dc/dcmitype/StillImage" />
        <dc:title></dc:title>
      </cc:Work>
    </rdf:RDF>
  </metadata>
  <g
     inkscape:label="Layer 1"
     inkscape:groupmode="layer"
     id="layer1"
     transform="translate(0,-1012.3622)">
    <g
       id="g3890"
       inkscape:export-filename="G:\xampplite\htdocs\public_html\wp-content\themes\cowobo\images\rsslarge.png"
       inkscape:export-xdpi="90.05455"
       inkscape:export-ydpi="90.05455"
       transform="matrix(0.95715878,0,0,0.95715878,-134.37161,25.598316)"
       style="stroke:#ededed;stroke-opacity:1">
      <rect
         style="fill:none;stroke:#ededed;stroke-width:1.85381281;stroke-linecap:round;stroke-miterlimit:4;stroke-opacity:1;stroke-dasharray:none"
         id="rect3110"
         width="18.557344"
         height="18.526512"
         x="141.68661"
         y="1032.2274"
         ry="4.5381947" />
      <path
         sodipodi:type="arc"
         style="fill:none;stroke:#ededed;stroke-width:51.09730148;stroke-miterlimit:4;stroke-opacity:1;stroke-dasharray:none"
         id="path3112"
         sodipodi:cx="546.94708"
         sodipodi:cy="-275.90704"
         sodipodi:rx="23.688078"
         sodipodi:ry="23.688078"
         d="m 570.63516,-275.90704 a 23.688078,23.688078 0 1 1 -47.37616,0 23.688078,23.688078 0 1 1 47.37616,0 z"
         transform="matrix(0.03594944,0,0,0.03661371,126.80739,1056.032)" />
      <path
         sodipodi:type="arc"
         style="fill:none;stroke:#ededed;stroke-width:1.80432343;stroke-linecap:butt;stroke-miterlimit:4;stroke-opacity:1;stroke-dasharray:none"
         id="path3114"
         sodipodi:cx="326.77173"
         sodipodi:cy="-216.42169"
         sodipodi:rx="11.22532"
         sodipodi:ry="11.22532"
         d="m 326.55185,-227.64486 a 11.22532,11.22532 0 0 1 11.4452,11.22317"
         transform="matrix(1.0180653,0,0,1.0368772,-187.64852,1272.2468)"
         sodipodi:start="4.6927999"
         sodipodi:end="6.2831852"
         sodipodi:open="true"
         inkscape:transform-center-x="-7.4367032"
         inkscape:transform-center-y="-8.3810579" />
      <path
         inkscape:transform-center-y="-5.1640462"
         inkscape:transform-center-x="-4.5822156"
         sodipodi:open="true"
         sodipodi:end="6.2948451"
         sodipodi:start="4.6836667"
         transform="matrix(0.62729184,0,0,0.63888293,-59.811319,1185.8598)"
         d="m 326.44936,-227.64238 a 11.22532,11.22532 0 0 1 11.54693,11.35157"
         sodipodi:ry="11.22532"
         sodipodi:rx="11.22532"
         sodipodi:cy="-216.42169"
         sodipodi:cx="326.77173"
         id="path3116"
         style="fill:none;stroke:#ededed;stroke-width:2.92833281;stroke-linecap:butt;stroke-miterlimit:4;stroke-opacity:1;stroke-dasharray:none"
         sodipodi:type="arc" />
    </g>
    <g
       inkscape:export-ydpi="90.05455"
       inkscape:export-xdpi="90.05455"
       inkscape:export-filename="G:\xampplite\htdocs\public_html\wp-content\themes\cowobo\images\rsslarge2.png"
       id="g3896"
       transform="matrix(0.95715878,0,0,0.95715878,-134.5132,45.447316)"
       style="stroke:#a7a7a7;stroke-opacity:1">
      <rect
         ry="4.5381947"
         y="1032.2274"
         x="141.68661"
         height="18.526512"
         width="18.557344"
         id="rect3898"
         style="fill:none;stroke:#a7a7a7;stroke-width:1.85381281;stroke-linecap:round;stroke-miterlimit:4;stroke-opacity:1;stroke-dasharray:none" />
      <path
         transform="matrix(0.03594944,0,0,0.03661371,126.80739,1056.032)"
         d="m 570.63516,-275.90704 a 23.688078,23.688078 0 1 1 -47.37616,0 23.688078,23.688078 0 1 1 47.37616,0 z"
         sodipodi:ry="23.688078"
         sodipodi:rx="23.688078"
         sodipodi:cy="-275.90704"
         sodipodi:cx="546.94708"
         id="path3900"
         style="fill:none;stroke:#a7a7a7;stroke-width:51.09730148;stroke-miterlimit:4;stroke-opacity:1;stroke-dasharray:none"
         sodipodi:type="arc" />
      <path
         inkscape:transform-center-y="-8.3810579"
         inkscape:transform-center-x="-7.4367032"
         sodipodi:open="true"
         sodipodi:end="6.2831852"
         sodipodi:start="4.6927999"
         transform="matrix(1.0180653,0,0,1.0368772,-187.64852,1272.2468)"
         d="m 326.55185,-227.64486 a 11.22532,11.22532 0 0 1 11.4452,11.22317"
         sodipodi:ry="11.22532"
         sodipodi:rx="11.22532"
         sodipodi:cy="-216.42169"
         sodipodi:cx="326.77173"
         id="path3902"
         style="fill:none;stroke:#a7a7a7;stroke-width:1.80432343;stroke-linecap:butt;stroke-miterlimit:4;stroke-opacity:1;stroke-dasharray:none"
         sodipodi:type="arc" />
      <path
         sodipodi:type="arc"
         style="fill:none;stroke:#a7a7a7;stroke-width:2.92833281;stroke-linecap:butt;stroke-miterlimit:4;stroke-opacity:1;stroke-dasharray:none"
         id="path3904"
         sodipodi:cx="326.77173"
         sodipodi:cy="-216.42169"
         sodipodi:rx="11.22532"
         sodipodi:ry="11.22532"
         d="m 326.44936,-227.64238 a 11.22532,11.22532 0 0 1 11.54693,11.35157"
         transform="matrix(0.62729184,0,0,0.63888293,-59.811319,1185.8598)"
         sodipodi:start="4.6836667"
         sodipodi:end="6.2948451"
         sodipodi:open="true"
         inkscape:transform-center-x="-4.5822156"
         inkscape:transform-center-y="-5.1640462" />
    </g>
    <path
       sodipodi:nodetypes="cccc"
       inkscape:connector-curvature="0"
       id="path4890"
       d="m 30.43218,1032.324 9.428325,10.017 9.559716,-10.0174 z"
       style="opacity:0.8;fill:#000000;fill-opacity:1;stroke:none" />
    <path
       style="fill:#ffffff;fill-opacity:1;stroke:none"
       d="m 35.379659,1032.3238 4.486185,4.7663 4.548697,-4.7665 z"
       id="path4892"
       inkscape:connector-curvature="0"
       sodipodi:nodetypes="cccc" />
    <path
       style="opacity:0.8;fill:#000000;fill-opacity:1;stroke:none"
       d="m 30.44992,1052.4113 9.428325,-10.017 9.559716,10.0175 z"
       id="path4896"
       inkscape:connector-curvature="0"
       sodipodi:nodetypes="cccc" />
    <path
       sodipodi:nodetypes="cccc"
       inkscape:connector-curvature="0"
       id="path4898"
       d="m 35.397399,1052.4116 4.486185,-4.7664 4.548697,4.7666 z"
       style="fill:#ffffff;fill-opacity:1;stroke:none" />
    <path
       sodipodi:nodetypes="cccc"
       inkscape:connector-curvature="0"
       id="path4902"
       d="m 20.303227,1052.4521 9.573836,-10.0201 -9.574279,-10.16 z"
       style="opacity:0.8;fill:#000000;fill-opacity:1;stroke:none" />
    <path
       style="fill:#ffffff;fill-opacity:1;stroke:none"
       d="m 20.302999,1047.1941 4.555411,-4.7679 -4.555626,-4.8342 z"
       id="path4904"
       inkscape:connector-curvature="0"
       sodipodi:nodetypes="cccc" />
    <path
       style="opacity:0.8;fill:#000000;fill-opacity:1;stroke:none"
       d="m 59.976589,1052.4521 -9.573836,-10.0201 9.574279,-10.16 z"
       id="path4908"
       inkscape:connector-curvature="0"
       sodipodi:nodetypes="cccc" />
    <path
       sodipodi:nodetypes="cccc"
       inkscape:connector-curvature="0"
       id="path4910"
       d="m 59.976817,1047.1941 -4.555411,-4.7679 4.555626,-4.8342 z"
       style="fill:#ffffff;fill-opacity:1;stroke:none" />
    <path
       style="opacity:0.4;fill:#000000;fill-opacity:1;stroke:none"
       d="m 30.43218,1012.5016 9.428325,9.8398 9.559716,-9.8402 z"
       id="path5167"
       inkscape:connector-curvature="0"
       sodipodi:nodetypes="cccc" />
    <path
       sodipodi:nodetypes="cccc"
       inkscape:connector-curvature="0"
       id="path5169"
       d="m 35.379659,1012.5014 4.486185,4.682 4.548697,-4.6822 z"
       style="opacity:0.8;fill:#ffffff;fill-opacity:1;stroke:none" />
    <path
       sodipodi:nodetypes="cccc"
       inkscape:connector-curvature="0"
       id="path5171"
       d="m 30.44992,1032.2334 9.428325,-9.8397 9.559716,9.8402 z"
       style="opacity:0.4;fill:#000000;fill-opacity:1;stroke:none" />
    <path
       style="opacity:0.8;fill:#ffffff;fill-opacity:1;stroke:none"
       d="m 35.397399,1032.2337 4.486185,-4.682 4.548697,4.6822 z"
       id="path5173"
       inkscape:connector-curvature="0"
       sodipodi:nodetypes="cccc" />
    <path
       style="opacity:0.4;fill:#000000;fill-opacity:1;stroke:none"
       d="m 20.303227,1032.2735 9.573836,-9.8428 -9.574279,-9.9801 z"
       id="path5175"
       inkscape:connector-curvature="0"
       sodipodi:nodetypes="cccc" />
    <path
       sodipodi:nodetypes="cccc"
       inkscape:connector-curvature="0"
       id="path5177"
       d="m 20.302999,1027.1085 4.555411,-4.6835 -4.555626,-4.7486 z"
       style="opacity:0.8;fill:#ffffff;fill-opacity:1;stroke:none" />
    <path
       sodipodi:nodetypes="cccc"
       inkscape:connector-curvature="0"
       id="path5179"
       d="m 59.976589,1032.2735 -9.573836,-9.8428 9.574279,-9.9801 z"
       style="opacity:0.4;fill:#000000;fill-opacity:1;stroke:none" />
    <path
       style="opacity:0.8;fill:#ffffff;fill-opacity:1;stroke:none"
       d="m 59.976817,1027.1085 -4.555411,-4.6835 4.555626,-4.7486 z"
       id="path5181"
       inkscape:connector-curvature="0"
       sodipodi:nodetypes="cccc" />
    <path
       inkscape:export-ydpi="90.05455"
       inkscape:export-xdpi="90.05455"
       inkscape:export-filename="G:\xampplite\htdocs\public_html\wp-content\themes\cowobo\images\unsupported.jpg.png"
       sodipodi:nodetypes="csscsssscsscscssscccsccccccccccccsscscsscsscsscccccsccccccscc"
       inkscape:connector-curvature="0"
       id="path5102"
       d="m 78.909875,1019.8125 c 0,0 0.273813,-7.197 5.85902,-6.6896 4.93076,0.4481 5.169837,0.9383 5.313458,1.3442 0.172767,0.489 -1.932185,1.4933 -1.932185,1.4933 0,0 1.212786,0.03 1.311138,0.5053 0.07737,0.3752 -1.794175,1.5854 -3.105272,1.6603 -1.31118,0.075 2.164719,0.32 1.518113,1.1945 -0.276,0.3736 -3.243283,1.4934 -5.313458,0.7469 -2.070196,-0.7469 -1.518134,0.6719 -1.518134,0.6719 0,0 2.639229,1.6196 2.139179,7.3178 -0.372914,4.2493 -1.32805,5.3215 -3.726359,5.8241 -1.891211,0.3963 -3.660919,-0.1545 -5.451448,-0.3735 0,0 2.691221,2.1655 2.484185,2.539 -0.207158,0.3731 -0.27602,0.7464 -0.27602,0.7464 0,0 2.121943,0.7282 1.725189,1.4937 -0.226499,0.4367 -3.105272,4.4799 -3.519283,4.4799 -0.414051,0 -1.242195,-1.3439 -0.621108,-2.9121 0.621108,-1.5678 -1.669997,1.7235 -3.132372,2.0918 -1.877195,-1.0313 0.960441,-3.8145 0.960441,-3.8145 l -2.313465,-4.7731 c 0,0 -0.759036,-2.016 1.380103,-2.6886 2.139222,-0.672 6.417622,-1.344 6.417622,-1.344 -0.527007,-0.091 -0.964776,-0.536 -1.104122,-2.1653 0,0 -4.012204,-0.03 -5.379021,-0.091 -0.307334,0.493 -1.237921,0.2192 -1.237921,0.2192 l 1.959022,0.3103 c 0.305167,0 -0.125169,1.0543 -1.059463,0.923 l -5.292132,-0.8069 c -0.223684,-0.084 -0.274441,-0.095 -0.48739,-0.4061 l -3.901868,-5.7572 c -0.472524,-0.6534 0.09823,-1.3395 0.271322,-1.0407 l 4.13815,6.0516 2.188519,0.3561 c 0,0 1.400439,-1.1676 2.435535,-1.1676 1.035099,0 1.189738,-0.1594 2.224834,-0.3072 1.035037,-0.1494 3.743758,-0.6098 3.743758,-0.6098 0,0 -0.240615,-0.8185 -0.221496,-1.5547 0.02025,-0.736 0.273205,-1.6808 -0.347943,-2.0916 -0.379557,-0.3731 -1.988793,1.5422 -2.829251,1.195 -0.466306,-0.1945 -0.351568,-0.6053 -0.707349,-0.9332 -0.343102,-0.3164 1.223277,-0.5066 1.017842,-0.9333 -0.220849,0.1462 -1.000586,0.6343 -1.311099,0.3732 -0.155348,-0.1312 -0.04253,-0.1444 -0.0636,-0.3322 -0.02187,-0.1883 -0.175398,-0.5467 -0.175398,-0.5467 0,0 -0.791282,0.3233 -0.996778,0 -0.07373,-0.1196 0.433617,-0.7465 0.63164,-1.1111 0.197881,-0.3642 -0.02815,-0.6788 -0.02815,-0.6788 -0.291394,-0.5317 -0.417232,-1.2811 0.04415,-1.8775 -0.550825,0.03 -1.145704,-0.084 -1.794134,-0.373 0.544062,-0.1661 1.067222,-0.3404 1.069589,-0.7471 -0.521719,-0.1296 -0.889044,-0.3282 -1.137541,-0.6791 0,0 1.708156,-0.075 1.872922,-0.1444 0.392623,-0.1595 0.425069,-0.7356 0.313004,-1.0364 0.956594,0.4439 1.352965,0.6441 2.343158,0.5723 0.845379,-0.2444 1.089681,-0.2475 1.370059,-0.7302 0.939762,0.8535 0.474913,1.2904 1.582966,1.8847 0.883739,0.7823 0.969393,1.3203 1.315311,2.1473 -0.433192,-0.3564 -0.796871,-0.2977 -1.138657,-0.113 0,0 0.33887,1.3411 0.451056,1.6121 0.112811,0.2724 2.039733,1.0828 2.039733,1.0828 z"
       style="fill:#f8f8f8;fill-opacity:1;stroke:none;display:inline" />
  </g>
</svg>
