<?xml version="1.0" encoding="UTF-8" standalone="no"?>
<!-- Created with Inkscape (http://www.inkscape.org/) -->

<svg
   xmlns:dc="http://purl.org/dc/elements/1.1/"
   xmlns:cc="http://creativecommons.org/ns#"
   xmlns:rdf="http://www.w3.org/1999/02/22-rdf-syntax-ns#"
   xmlns:svg="http://www.w3.org/2000/svg"
   xmlns="http://www.w3.org/2000/svg"
   xmlns:sodipodi="http://sodipodi.sourceforge.net/DTD/sodipodi-0.dtd"
   xmlns:inkscape="http://www.inkscape.org/namespaces/inkscape"
   width="85mm"
   height="54mm"
   id="svg4465"
   version="1.1"
   inkscape:version="0.48.2 r9819"
   sodipodi:docname="logo.svg"
   inkscape:export-filename="G:\xampplite\htdocs\public_html\wp-content\themes\cowobo\images\logo.png"
   inkscape:export-xdpi="90.05455"
   inkscape:export-ydpi="90.05455">
  <defs
     id="defs3" />
  <sodipodi:namedview
     id="base"
     pagecolor="#ffffff"
     bordercolor="#666666"
     borderopacity="1.0"
     inkscape:pageopacity="0.0"
     inkscape:pageshadow="2"
     inkscape:zoom="0.6"
     inkscape:cx="118.02808"
     inkscape:cy="85.248797"
     inkscape:document-units="mm"
     inkscape:current-layer="layer1"
     showgrid="false"
     inkscape:window-width="1055"
     inkscape:window-height="556"
     inkscape:window-x="100"
     inkscape:window-y="100"
     inkscape:window-maximized="0" />
  <metadata
     id="metadata4469">
    <rdf:RDF>
      <cc:Work
         rdf:about="">
        <dc:format>image/svg+xml</dc:format>
        <dc:type
           rdf:resource="http://purl.org/dc/dcmitype/StillImage" />
        <dc:title></dc:title>
      </cc:Work>
    </rdf:RDF>
  </metadata>
  <g
     inkscape:label="Layer 1"
     inkscape:groupmode="layer"
     id="layer1">
    <path
       sodipodi:nodetypes="csscsssscsscscssscccsccccccccccccsscscsscsscsscccccsccccccscc"
       inkscape:connector-curvature="0"
       id="path4348"
       d="m 97.52755,60.924082 c 0,0 1.33,-32.30261 28.45597,-30.024921 23.94775,2.010931 25.10898,4.211344 25.80644,6.032736 0.84031,2.194238 -9.38413,6.702967 -9.38413,6.702967 0,0 5.89024,0.125908 6.36783,2.268238 0.37517,1.682807 -8.71391,7.115962 -15.08167,7.451107 -6.36789,0.335146 10.51377,1.436825 7.37325,5.362384 -1.34064,1.675729 -15.75202,6.702975 -25.80649,3.351516 -10.05449,-3.351516 -7.37327,3.016313 -7.37327,3.016313 0,0 12.81819,7.268754 10.38957,32.844558 -1.81103,19.07274 -6.44996,23.88548 -18.09803,26.14165 -9.185317,1.77916 -17.780329,-0.6939 -26.476738,-1.67573 0,0 13.070795,9.71929 12.065358,11.39507 -1.005438,1.67573 -1.340584,3.35146 -1.340584,3.35146 0,0 10.305786,3.26767 8.378697,6.70303 -1.099978,1.96071 -15.081666,20.10891 -17.092596,20.10891 -2.010875,0 -6.032624,-6.03268 -3.016312,-13.07085 3.016312,-7.03806 -8.110979,7.73518 -15.21358,9.3877 -9.116982,-4.62761 4.66481,-17.11994 4.66481,-17.11994 l -11.23593,-21.42567 c 0,0 -3.68666,-9.04904 6.702971,-12.06536 10.389632,-3.01636 31.168894,-6.03267 31.168894,-6.03267 -2.559563,-0.40886 -4.685698,-2.40694 -5.362449,-9.71934 0,0 -19.486627,-0.0749 -26.124777,-0.41299 -1.492757,2.21417 -6.012299,0.98511 -6.012299,0.98511 l 9.514516,1.39685 c 1.482226,0.0385 -0.608528,4.734 -5.145563,4.14353 L 29.948592,96.39779 C 28.862879,96.02352 28.614973,95.95921 27.581569,94.57543 L 8.63106,68.734568 C 6.335934,65.801244 9.106435,62.723002 9.949054,64.062113 l 20.098044,27.163907 10.629101,1.59793 c 0,0 6.80176,-5.24039 11.828945,-5.24039 5.027243,0 5.778263,-0.71444 10.805449,-1.38479 5.027244,-0.67024 18.182904,-2.738623 18.182904,-2.738623 0,0 -1.168089,-3.673191 -1.075867,-6.977713 0.09222,-3.304474 1.32621,-7.543785 -1.69016,-9.387079 -1.843247,-1.675787 -9.658823,6.921324 -13.74109,5.362326 -2.264726,-0.864863 -1.707264,-2.716268 -3.435302,-4.189381 -1.666444,-1.420628 5.941252,-2.273664 4.943515,-4.189316 -1.073147,0.660157 -4.859728,2.848741 -6.367827,1.67573 -0.754135,-0.586505 -0.206523,-0.650874 -0.308312,-1.490212 -0.101733,-0.839337 -0.85281,-2.453756 -0.85281,-2.453756 0,0 -3.843023,1.451206 -4.841101,-0.03905 -0.358017,-0.534533 2.106097,-3.351174 3.067716,-4.98676 0.961676,-1.63565 -0.129699,-3.046655 -0.129699,-3.046655 -1.414575,-2.387296 -2.02633,-5.750583 0.21541,-8.427846 -2.675278,0.129365 -5.56472,-0.383433 -8.713902,-1.675721 2.642557,-0.742023 5.18338,-1.526053 5.194872,-3.351516 -2.533917,-0.583675 -4.318002,-1.473797 -5.524752,-3.048582 0,0 8.296102,-0.340242 9.096375,-0.639777 1.906765,-0.7136 2.064486,-3.301468 1.519139,-4.652298 4.646127,1.993381 6.571461,2.890915 11.380577,2.570261 4.105818,-1.093809 5.292188,-1.117642 6.653944,-3.278596 4.56455,3.829833 2.306675,5.791906 7.688086,8.460054 4.2923,3.511158 4.70823,5.925908 6.388149,9.637983 -2.103894,-1.60072 -3.870089,-1.343919 -5.529964,-0.502662 0,0 1.645778,6.019489 2.19039,7.234393 0.548403,1.22334 9.906666,4.859949 9.906666,4.859949 z"
       style="fill:#000000;fill-opacity:1;stroke:none" />
    <flowRoot
       transform="matrix(0.82207396,0,0,0.82207396,-1953.2203,-632.2695)"
       style="font-size:40px;font-style:normal;font-weight:normal;line-height:125%;letter-spacing:0px;word-spacing:0px;fill:#000000;fill-opacity:1;stroke:none;font-family:Sans"
       id="flowRoot4350"
       xml:space="preserve"><flowRegion
         id="flowRegion4352"><rect
           y="809.9256"
           x="2163.7468"
           height="256.57874"
           width="557.60419"
           id="rect4354"
           style="fill:#000000;fill-opacity:1" /></flowRegion><flowPara
         style="font-size:34.43270111px;font-weight:bold;text-align:end;text-anchor:end;fill:#000000;fill-opacity:1;-inkscape-font-specification:Sans Bold"
         id="flowPara4356">CODERS</flowPara><flowPara
         style="font-size:34.43270111px;text-align:end;text-anchor:end;fill:#000000;fill-opacity:1"
         id="flowPara4358">WITHOUT </flowPara><flowPara
         style="font-size:34.43270111px;font-weight:bold;text-align:end;text-anchor:end;fill:#000000;fill-opacity:1;-inkscape-font-specification:Sans Bold"
         id="flowPara4360">BORDERS</flowPara></flowRoot>    <flowRoot
       xml:space="preserve"
       id="flowRoot4362"
       style="font-size:40px;font-style:normal;font-weight:normal;line-height:125%;letter-spacing:0px;word-spacing:0px;fill:#000000;fill-opacity:1;stroke:none;font-family:Sans"
       transform="matrix(0.44547765,0,0,0.44547765,-928.97238,-216.00688)"><flowRegion
         id="flowRegion4364"><rect
           style="fill:#000000;fill-opacity:1"
           id="rect4366"
           width="557.60419"
           height="256.57874"
           x="2163.7468"
           y="809.9256" /></flowRegion><flowPara
         id="flowPara4368"
         style="font-size:37.84350204px;font-weight:bold;text-align:end;text-anchor:end;fill:#000000;fill-opacity:1;-inkscape-font-specification:Sans Bold">WWW.COWOBO.ORG</flowPara></flowRoot>  </g>
</svg>
