<?xml version="1.0" encoding="UTF-8" standalone="no"?>
<!-- Created with Inkscape (http://www.inkscape.org/) -->

<svg
   xmlns:dc="http://purl.org/dc/elements/1.1/"
   xmlns:cc="http://creativecommons.org/ns#"
   xmlns:rdf="http://www.w3.org/1999/02/22-rdf-syntax-ns#"
   xmlns:svg="http://www.w3.org/2000/svg"
   xmlns="http://www.w3.org/2000/svg"
   xmlns:sodipodi="http://sodipodi.sourceforge.net/DTD/sodipodi-0.dtd"
   xmlns:inkscape="http://www.inkscape.org/namespaces/inkscape"
   width="120"
   height="30"
   id="svg5395"
   version="1.1"
   inkscape:version="0.48.2 r9819"
   sodipodi:docname="smallicons.svg"
   inkscape:export-filename="G:\xampplite\htdocs\public_html\wp-content\themes\cowobo\images\smallicons.png"
   inkscape:export-xdpi="90.05455"
   inkscape:export-ydpi="90.05455">
  <defs
     id="defs5397" />
  <sodipodi:namedview
     id="base"
     pagecolor="#ffffff"
     bordercolor="#666666"
     borderopacity="1.0"
     inkscape:pageopacity="0.0"
     inkscape:pageshadow="2"
     inkscape:zoom="3.959798"
     inkscape:cx="69.948831"
     inkscape:cy="1.7450475"
     inkscape:document-units="px"
     inkscape:current-layer="layer1"
     showgrid="false"
     inkscape:window-width="1366"
     inkscape:window-height="706"
     inkscape:window-x="-8"
     inkscape:window-y="-8"
     inkscape:window-maximized="1"
     borderlayer="true"
     showborder="true"
     inkscape:showpageshadow="false"
     showguides="true"
     inkscape:guide-bbox="true"
     inkscape:snap-global="false">
    <sodipodi:guide
       orientation="1,0"
       position="15,19.464286"
       id="guide5434" />
    <sodipodi:guide
       orientation="1,0"
       position="30,21.25"
       id="guide5436" />
    <sodipodi:guide
       orientation="1,0"
       position="45,17.946429"
       id="guide5438" />
    <sodipodi:guide
       orientation="1,0"
       position="59.977808,16.541248"
       id="guide5440" />
    <sodipodi:guide
       orientation="1,0"
       position="75,36.61803"
       id="guide5452" />
    <sodipodi:guide
       orientation="0,1"
       position="-41.163716,14.89975"
       id="guide5820" />
  </sodipodi:namedview>
  <metadata
     id="metadata5400">
    <rdf:RDF>
      <cc:Work
         rdf:about="">
        <dc:format>image/svg+xml</dc:format>
        <dc:type
           rdf:resource="http://purl.org/dc/dcmitype/StillImage" />
        <dc:title />
      </cc:Work>
    </rdf:RDF>
  </metadata>
  <g
     inkscape:label="Layer 1"
     inkscape:groupmode="layer"
     id="layer1"
     transform="translate(0,-1022.3622)">
    <g
       id="g3962"
       transform="matrix(0.45804715,0,0,0.47757471,-89.470107,989.00655)"
       style="stroke:#757575;stroke-width:2.56569767;stroke-miterlimit:4;stroke-opacity:1;stroke-dasharray:none"
       inkscape:export-filename="G:\xampplite\htdocs\public_html\wp-content\themes\cowobo\images\icons.png"
       inkscape:export-xdpi="90.05455"
       inkscape:export-ydpi="90.05455">
      <path
         transform="matrix(-0.45371433,1.0076273,-1.0076273,-0.45371433,130.21221,-373.44069)"
         d="m 349.66432,-262.56042 c 0,4.34458 -3.75942,7.86656 -8.39689,7.86656 -4.63748,0 -8.3969,-3.52198 -8.3969,-7.86656 0,-4.34459 3.75942,-7.86657 8.3969,-7.86657 4.63747,0 8.39689,3.52198 8.39689,7.86657 z"
         sodipodi:ry="7.8665628"
         sodipodi:rx="8.3968935"
         sodipodi:cy="-262.56042"
         sodipodi:cx="341.26743"
         id="path3882"
         style="fill:none;stroke:#757575;stroke-width:2.32176113;stroke-miterlimit:4;stroke-opacity:1;stroke-dasharray:none"
         sodipodi:type="arc" />
      <path
         sodipodi:type="arc"
         style="fill:none;stroke:#757575;stroke-width:2.32176113;stroke-miterlimit:4;stroke-opacity:1;stroke-dasharray:none"
         id="path3884"
         sodipodi:cx="341.26743"
         sodipodi:cy="-262.56042"
         sodipodi:rx="8.3968935"
         sodipodi:ry="7.8665628"
         d="m 349.66432,-262.56042 c 0,4.34458 -3.75942,7.86656 -8.39689,7.86656 -4.63748,0 -8.3969,-3.52198 -8.3969,-7.86656 0,-4.34459 3.75942,-7.86657 8.3969,-7.86657 4.63747,0 8.39689,3.52198 8.39689,7.86657 z"
         transform="matrix(-0.45371433,1.0076273,-1.0076273,-0.45371433,139.10024,-381.13974)" />
    </g>
    <path
       style="fill:none;stroke:#757575;stroke-width:1.20000005;stroke-linejoin:round;stroke-miterlimit:4;stroke-opacity:1;stroke-dasharray:none"
       d="m 37.524508,1023.8775 c -2.134139,0 -3.853101,1.6375 -3.853101,3.6434 0,0.9071 0.351602,1.7228 0.936449,2.3594 -3.951511,1.7834 -3.216098,6.3314 -3.216098,6.3314 l 12.294903,0 c 0,0 0.152251,-5.1004 -3.460394,-6.0924 0.718559,-0.6596 1.166605,-1.5795 1.166605,-2.5984 0,-2.006 -1.734224,-3.6434 -3.868364,-3.6434 z"
       id="path3886"
       inkscape:connector-curvature="0"
       sodipodi:nodetypes="ssccccss"
       inkscape:export-filename="G:\xampplite\htdocs\public_html\wp-content\themes\cowobo\images\icons.png"
       inkscape:export-xdpi="90.05455"
       inkscape:export-ydpi="90.05455" />
    <g
       id="g3956"
       transform="matrix(0.46873211,0,0,0.47739334,-95.355813,989.02195)"
       style="stroke:#757575;stroke-width:2.53676772;stroke-miterlimit:4;stroke-opacity:1;stroke-dasharray:none"
       inkscape:export-filename="G:\xampplite\htdocs\public_html\wp-content\themes\cowobo\images\icons.png"
       inkscape:export-xdpi="90.05455"
       inkscape:export-ydpi="90.05455">
      <rect
         ry="6.30616"
         y="73.133621"
         x="302.34064"
         height="25.743971"
         width="26.263302"
         id="rect3910"
         style="fill:none;stroke:#757575;stroke-width:2.53676772;stroke-linecap:round;stroke-miterlimit:4;stroke-opacity:1;stroke-dasharray:none" />
      <path
         transform="matrix(0.05087748,0,0,0.05087748,281.28279,106.21191)"
         d="m 570.63516,-275.90704 c 0,13.08256 -10.60551,23.68807 -23.68808,23.68807 -13.08256,0 -23.68808,-10.60551 -23.68808,-23.68807 0,-13.08257 10.60552,-23.68808 23.68808,-23.68808 13.08257,0 23.68808,10.60551 23.68808,23.68808 z"
         sodipodi:ry="23.688078"
         sodipodi:rx="23.688078"
         sodipodi:cy="-275.90704"
         sodipodi:cx="546.94708"
         id="path3912"
         style="fill:none;stroke:#757575;stroke-width:49.86032867;stroke-miterlimit:4;stroke-opacity:1;stroke-dasharray:none"
         sodipodi:type="arc" />
      <path
         inkscape:transform-center-y="-9.0419607"
         inkscape:transform-center-x="-8.0231629"
         sodipodi:open="true"
         sodipodi:end="6.2831852"
         sodipodi:start="4.6927999"
         transform="matrix(1.4408181,0,0,1.4408181,-163.75126,406.65853)"
         d="m 326.55185,-227.64486 c 6.19838,-0.12143 11.32161,4.8049 11.44304,11.00329 0.001,0.0733 0.002,0.14658 0.002,0.21988"
         sodipodi:ry="11.22532"
         sodipodi:rx="11.22532"
         sodipodi:cy="-216.42169"
         sodipodi:cx="326.77173"
         id="path3922"
         style="fill:none;stroke:#757575;stroke-width:1.76064408;stroke-linecap:butt;stroke-miterlimit:4;stroke-opacity:1;stroke-dasharray:none"
         sodipodi:type="arc" />
      <path
         sodipodi:type="arc"
         style="fill:none;stroke:#757575;stroke-width:2.85744309;stroke-linecap:butt;stroke-miterlimit:4;stroke-opacity:1;stroke-dasharray:none"
         id="path3924"
         sodipodi:cx="326.77173"
         sodipodi:cy="-216.42169"
         sodipodi:rx="11.22532"
         sodipodi:ry="11.22532"
         d="m 326.44936,-227.64238 c 6.19701,-0.17804 11.36502,4.7013 11.54306,10.89832 0.004,0.15104 0.006,0.30215 0.004,0.45325"
         transform="matrix(0.88777546,0,0,0.88777546,17.170469,286.61733)"
         sodipodi:start="4.6836667"
         sodipodi:end="6.2948451"
         sodipodi:open="true"
         inkscape:transform-center-x="-4.9435585"
         inkscape:transform-center-y="-5.5712968" />
    </g>
    <g
       id="g3906"
       style="stroke:#757575;stroke-width:1.20000005;stroke-miterlimit:4;stroke-opacity:1;stroke-dasharray:none"
       transform="translate(0,-14.89975)">
      <path
         transform="matrix(-0.20222492,0.46825585,-0.44910934,-0.21084621,20.648424,827.767)"
         d="m 349.66432,-262.56042 c 0,4.34458 -3.75942,7.86656 -8.39689,7.86656 -4.63748,0 -8.3969,-3.52198 -8.3969,-7.86656 0,-4.34459 3.75942,-7.86657 8.3969,-7.86657 4.63747,0 8.39689,3.52198 8.39689,7.86657 z"
         sodipodi:ry="7.8665628"
         sodipodi:rx="8.3968935"
         sodipodi:cy="-262.56042"
         sodipodi:cx="341.26743"
         id="path5448"
         style="fill:none;stroke:#757575;stroke-width:2.38602805;stroke-miterlimit:4;stroke-opacity:1;stroke-dasharray:none"
         sodipodi:type="arc" />
      <rect
         ry="0.30045882"
         transform="matrix(0.63740212,0.77053133,-0.68633924,0.72728154,0,0)"
         y="620.07324"
         x="771.39459"
         height="5.8310189"
         width="1.947961"
         id="rect5454"
         style="fill:none;stroke:#757575;stroke-width:1.20457602;stroke-miterlimit:4;stroke-opacity:1;stroke-dasharray:none" />
    </g>
    <path
       sodipodi:type="arc"
       style="fill:none;stroke:#757575;stroke-width:1.20000005;stroke-linecap:round;stroke-linejoin:round;stroke-miterlimit:4;stroke-opacity:1;stroke-dasharray:none"
       id="path6003"
       sodipodi:cx="1.767767"
       sodipodi:cy="12.790291"
       sodipodi:rx="2.0203052"
       sodipodi:ry="2.0834396"
       d="m 3.7880721,12.790291 c 0,1.150652 -0.9045214,2.083439 -2.0203051,2.083439 -1.11578378,0 -2.0203052,-0.932787 -2.0203052,-2.083439 0,-1.150652 0.90452142,-2.08344 2.0203052,-2.08344 1.1157837,0 2.0203051,0.932788 2.0203051,2.08344 z"
       transform="translate(1.6414979,1021.4523)" />
    <path
       style="fill:#ffffff;fill-opacity:1;stroke:#757575;stroke-width:1.20000005;stroke-linecap:round;stroke-linejoin:round;stroke-miterlimit:4;stroke-opacity:1;stroke-dasharray:none"
       d="m 9.0710125,1023.658 4.5782405,5.9832 -6.4177614,5.6296 -3.984008,-1.5045 -0.594178,-4.4784 z"
       id="rect6000"
       inkscape:connector-curvature="0"
       sodipodi:nodetypes="cccccc" />
    <g
       inkscape:export-ydpi="90.05455"
       inkscape:export-xdpi="90.05455"
       inkscape:export-filename="G:\xampplite\htdocs\public_html\wp-content\themes\cowobo\images\icons.png"
       style="stroke:#dadada;stroke-width:2.56569767;stroke-miterlimit:4;stroke-opacity:1;stroke-dasharray:none"
       transform="matrix(0.45804715,0,0,0.47757471,-89.470107,1003.7992)"
       id="g5837">
      <path
         sodipodi:type="arc"
         style="fill:none;stroke:#dadada;stroke-width:2.32176113;stroke-miterlimit:4;stroke-opacity:1;stroke-dasharray:none"
         id="path5839"
         sodipodi:cx="341.26743"
         sodipodi:cy="-262.56042"
         sodipodi:rx="8.3968935"
         sodipodi:ry="7.8665628"
         d="m 349.66432,-262.56042 c 0,4.34458 -3.75942,7.86656 -8.39689,7.86656 -4.63748,0 -8.3969,-3.52198 -8.3969,-7.86656 0,-4.34459 3.75942,-7.86657 8.3969,-7.86657 4.63747,0 8.39689,3.52198 8.39689,7.86657 z"
         transform="matrix(-0.45371433,1.0076273,-1.0076273,-0.45371433,130.21221,-373.44069)" />
      <path
         transform="matrix(-0.45371433,1.0076273,-1.0076273,-0.45371433,139.10024,-381.13974)"
         d="m 349.66432,-262.56042 c 0,4.34458 -3.75942,7.86656 -8.39689,7.86656 -4.63748,0 -8.3969,-3.52198 -8.3969,-7.86656 0,-4.34459 3.75942,-7.86657 8.3969,-7.86657 4.63747,0 8.39689,3.52198 8.39689,7.86657 z"
         sodipodi:ry="7.8665628"
         sodipodi:rx="8.3968935"
         sodipodi:cy="-262.56042"
         sodipodi:cx="341.26743"
         id="path5841"
         style="fill:none;stroke:#dadada;stroke-width:2.32176113;stroke-miterlimit:4;stroke-opacity:1;stroke-dasharray:none"
         sodipodi:type="arc" />
    </g>
    <path
       inkscape:export-ydpi="90.05455"
       inkscape:export-xdpi="90.05455"
       inkscape:export-filename="G:\xampplite\htdocs\public_html\wp-content\themes\cowobo\images\icons.png"
       sodipodi:nodetypes="ssccccss"
       inkscape:connector-curvature="0"
       id="path5843"
       d="m 37.524508,1038.6701 c -2.134139,0 -3.853101,1.6374 -3.853101,3.6434 0,0.9071 0.351602,1.7228 0.936449,2.3593 -3.951511,1.7834 -3.216098,6.3314 -3.216098,6.3314 l 12.294903,0 c 0,0 0.152251,-5.1004 -3.460394,-6.0924 0.718559,-0.6596 1.166605,-1.5795 1.166605,-2.5983 0,-2.006 -1.734224,-3.6434 -3.868364,-3.6434 z"
       style="fill:none;stroke:#dadada;stroke-width:1.20000005;stroke-linejoin:round;stroke-miterlimit:4;stroke-opacity:1;stroke-dasharray:none" />
    <g
       inkscape:export-ydpi="90.05455"
       inkscape:export-xdpi="90.05455"
       inkscape:export-filename="G:\xampplite\htdocs\public_html\wp-content\themes\cowobo\images\icons.png"
       style="stroke:#dadada;stroke-width:2.53676772;stroke-miterlimit:4;stroke-opacity:1;stroke-dasharray:none"
       transform="matrix(0.46873211,0,0,0.47739334,-95.355813,1003.8146)"
       id="g5845">
      <rect
         style="fill:none;stroke:#dadada;stroke-width:2.53676772;stroke-linecap:round;stroke-miterlimit:4;stroke-opacity:1;stroke-dasharray:none"
         id="rect5847"
         width="26.263302"
         height="25.743971"
         x="302.34064"
         y="73.133621"
         ry="6.30616" />
      <path
         sodipodi:type="arc"
         style="fill:none;stroke:#dadada;stroke-width:49.86032867;stroke-miterlimit:4;stroke-opacity:1;stroke-dasharray:none"
         id="path5849"
         sodipodi:cx="546.94708"
         sodipodi:cy="-275.90704"
         sodipodi:rx="23.688078"
         sodipodi:ry="23.688078"
         d="m 570.63516,-275.90704 c 0,13.08256 -10.60551,23.68807 -23.68808,23.68807 -13.08256,0 -23.68808,-10.60551 -23.68808,-23.68807 0,-13.08257 10.60552,-23.68808 23.68808,-23.68808 13.08257,0 23.68808,10.60551 23.68808,23.68808 z"
         transform="matrix(0.05087748,0,0,0.05087748,281.28279,106.21191)" />
      <path
         sodipodi:type="arc"
         style="fill:none;stroke:#dadada;stroke-width:1.76064408;stroke-linecap:butt;stroke-miterlimit:4;stroke-opacity:1;stroke-dasharray:none"
         id="path5851"
         sodipodi:cx="326.77173"
         sodipodi:cy="-216.42169"
         sodipodi:rx="11.22532"
         sodipodi:ry="11.22532"
         d="m 326.55185,-227.64486 c 6.19838,-0.12143 11.32161,4.8049 11.44304,11.00329 0.001,0.0733 0.002,0.14658 0.002,0.21988"
         transform="matrix(1.4408181,0,0,1.4408181,-163.75126,406.65853)"
         sodipodi:start="4.6927999"
         sodipodi:end="6.2831852"
         sodipodi:open="true"
         inkscape:transform-center-x="-8.0231629"
         inkscape:transform-center-y="-9.0419607" />
      <path
         inkscape:transform-center-y="-5.5712968"
         inkscape:transform-center-x="-4.9435585"
         sodipodi:open="true"
         sodipodi:end="6.2948451"
         sodipodi:start="4.6836667"
         transform="matrix(0.88777546,0,0,0.88777546,17.170469,286.61733)"
         d="m 326.44936,-227.64238 c 6.19701,-0.17804 11.36502,4.7013 11.54306,10.89832 0.004,0.15104 0.006,0.30215 0.004,0.45325"
         sodipodi:ry="11.22532"
         sodipodi:rx="11.22532"
         sodipodi:cy="-216.42169"
         sodipodi:cx="326.77173"
         id="path5853"
         style="fill:none;stroke:#dadada;stroke-width:2.85744309;stroke-linecap:butt;stroke-miterlimit:4;stroke-opacity:1;stroke-dasharray:none"
         sodipodi:type="arc" />
    </g>
    <g
       style="stroke:#dadada;stroke-width:1.20000005;stroke-miterlimit:4;stroke-opacity:1;stroke-dasharray:none"
       id="g5855"
       transform="translate(0,-0.107143)">
      <path
         sodipodi:type="arc"
         style="fill:none;stroke:#dadada;stroke-width:2.38602805;stroke-miterlimit:4;stroke-opacity:1;stroke-dasharray:none"
         id="path5857"
         sodipodi:cx="341.26743"
         sodipodi:cy="-262.56042"
         sodipodi:rx="8.3968935"
         sodipodi:ry="7.8665628"
         d="m 349.66432,-262.56042 c 0,4.34458 -3.75942,7.86656 -8.39689,7.86656 -4.63748,0 -8.3969,-3.52198 -8.3969,-7.86656 0,-4.34459 3.75942,-7.86657 8.3969,-7.86657 4.63747,0 8.39689,3.52198 8.39689,7.86657 z"
         transform="matrix(-0.20222492,0.46825585,-0.44910934,-0.21084621,20.648424,827.767)" />
      <rect
         style="fill:none;stroke:#dadada;stroke-width:1.20457602;stroke-miterlimit:4;stroke-opacity:1;stroke-dasharray:none"
         id="rect5859"
         width="1.947961"
         height="5.8310189"
         x="771.39459"
         y="620.07324"
         transform="matrix(0.63740212,0.77053133,-0.68633924,0.72728154,0,0)"
         ry="0.30045882" />
    </g>
    <path
       transform="translate(1.6414979,1036.2448)"
       d="m 3.7880721,12.790291 c 0,1.150652 -0.9045214,2.083439 -2.0203051,2.083439 -1.11578378,0 -2.0203052,-0.932787 -2.0203052,-2.083439 0,-1.150652 0.90452142,-2.08344 2.0203052,-2.08344 1.1157837,0 2.0203051,0.932788 2.0203051,2.08344 z"
       sodipodi:ry="2.0834396"
       sodipodi:rx="2.0203052"
       sodipodi:cy="12.790291"
       sodipodi:cx="1.767767"
       id="path5861"
       style="fill:none;stroke:#dadada;stroke-width:1.20000005;stroke-linecap:round;stroke-linejoin:round;stroke-miterlimit:4;stroke-opacity:1;stroke-dasharray:none"
       sodipodi:type="arc" />
    <path
       sodipodi:nodetypes="cccccc"
       inkscape:connector-curvature="0"
       id="path5863"
       d="m 9.0710125,1038.4506 4.5782405,5.9831 -6.4177614,5.6297 -3.984008,-1.5046 -0.594178,-4.4784 z"
       style="fill:#ffffff;fill-opacity:1;stroke:#dadada;stroke-width:1.20000005;stroke-linecap:round;stroke-linejoin:round;stroke-miterlimit:4;stroke-opacity:1;stroke-dasharray:none" />
    <path
       style="fill:#d4d4d4;fill-opacity:1;stroke:none"
       d="m 75.78516,1042.0797 6.88168,6.9878 6.97757,-6.9882 z"
       id="path5414"
       inkscape:connector-curvature="0"
       sodipodi:nodetypes="cccc" />
    <path
       sodipodi:nodetypes="cccc"
       inkscape:connector-curvature="0"
       id="path6114"
       d="m 75.78516,1027.2431 6.88168,6.9878 6.97757,-6.9882 z"
       style="fill:#757575;fill-opacity:1;stroke:none" />
    <path
       style="fill:#f6f6f6;fill-opacity:1;stroke:none"
       d="m 91.934872,1039.6122 -0.692009,1 2.968944,4.1875 -2.968944,4.1563 0.692009,0.9687 3.16985,-4.4375 2.857327,0 -2.477838,3.4688 0.714331,0.9687 3.169849,-4.4375 10.201559,0 0,3.5625 10.08994,-3.7812 -10.08994,-5.1563 0,3.875 -10.246205,0 -3.125203,-4.375 -0.714331,1 2.41087,3.375 -2.835005,0 -3.125204,-4.375 z"
       id="path3787"
       inkscape:connector-curvature="0" />
    <path
       inkscape:connector-curvature="0"
       id="path3962"
       d="m 91.934872,1024.2074 -0.692009,1 2.968944,4.1875 -2.968944,4.1563 0.692009,0.9687 3.16985,-4.4375 2.857327,0 -2.477838,3.4688 0.714331,0.9687 3.169849,-4.4375 10.201559,0 0,3.5625 10.08994,-3.7812 -10.08994,-5.1563 0,3.875 -10.246205,0 -3.125203,-4.375 -0.714331,1 2.41087,3.375 -2.835005,0 -3.125204,-4.375 z"
       style="fill:#757575;fill-opacity:1;stroke:none" />
  </g>
</svg>
