<?xml version="1.0" encoding="UTF-8" standalone="no"?>
<!-- Created with Inkscape (http://www.inkscape.org/) -->

<svg
   xmlns:dc="http://purl.org/dc/elements/1.1/"
   xmlns:cc="http://creativecommons.org/ns#"
   xmlns:rdf="http://www.w3.org/1999/02/22-rdf-syntax-ns#"
   xmlns:svg="http://www.w3.org/2000/svg"
   xmlns="http://www.w3.org/2000/svg"
   xmlns:xlink="http://www.w3.org/1999/xlink"
   xmlns:sodipodi="http://sodipodi.sourceforge.net/DTD/sodipodi-0.dtd"
   xmlns:inkscape="http://www.inkscape.org/namespaces/inkscape"
   width="210"
   height="15"
   id="svg5395"
   version="1.1"
   inkscape:version="0.48.2 r9819"
   sodipodi:docname="smallicons.svg"
   inkscape:export-filename="G:\xampplite\htdocs\public_html\wp-content\themes\cowobo\images\smallicons.png"
   inkscape:export-xdpi="90.05455"
   inkscape:export-ydpi="90.05455">
  <defs
     id="defs5397">
    <linearGradient
       inkscape:collect="always"
       xlink:href="#linearGradient18783"
       id="linearGradient18883"
       gradientUnits="userSpaceOnUse"
       gradientTransform="translate(-570.21314,-523.07993)"
       x1="734.125"
       y1="1601.303"
       x2="734.125"
       y2="1587.2242" />
    <linearGradient
       inkscape:collect="always"
       id="linearGradient18783">
      <stop
         style="stop-color:#dfdfdf;stop-opacity:1;"
         offset="0"
         id="stop18785" />
      <stop
         style="stop-color:#dfdfdf;stop-opacity:0;"
         offset="1"
         id="stop18787" />
    </linearGradient>
    <linearGradient
       inkscape:collect="always"
       xlink:href="#linearGradient18783"
       id="linearGradient18789"
       x1="734.125"
       y1="1601.303"
       x2="734.125"
       y2="1587.2242"
       gradientUnits="userSpaceOnUse"
       gradientTransform="translate(-642.5,-481)" />
    <linearGradient
       y2="1587.2242"
       x2="734.125"
       y1="1601.303"
       x1="734.125"
       gradientTransform="translate(-689.00708,-523.07993)"
       gradientUnits="userSpaceOnUse"
       id="linearGradient18930"
       xlink:href="#linearGradient18783"
       inkscape:collect="always" />
    <linearGradient
       inkscape:collect="always"
       xlink:href="#linearGradient18783"
       id="linearGradient19873"
       gradientUnits="userSpaceOnUse"
       gradientTransform="matrix(0.06279544,0,0,1,175.61889,-548.92257)"
       x1="734.125"
       y1="1601.303"
       x2="734.125"
       y2="1587.2242" />
  </defs>
  <sodipodi:namedview
     id="base"
     pagecolor="#ffffff"
     bordercolor="#666666"
     borderopacity="1.0"
     inkscape:pageopacity="0.0"
     inkscape:pageshadow="2"
     inkscape:zoom="2"
     inkscape:cx="124.73003"
     inkscape:cy="2.662767"
     inkscape:document-units="px"
     inkscape:current-layer="layer1"
     showgrid="false"
     inkscape:window-width="1366"
     inkscape:window-height="706"
     inkscape:window-x="-8"
     inkscape:window-y="-8"
     inkscape:window-maximized="1"
     borderlayer="true"
     showborder="true"
     inkscape:showpageshadow="false"
     showguides="true"
     inkscape:guide-bbox="true"
     inkscape:snap-global="false">
    <sodipodi:guide
       orientation="1,0"
       position="15,19.464286"
       id="guide5434" />
    <sodipodi:guide
       orientation="1,0"
       position="30,21.25"
       id="guide5436" />
    <sodipodi:guide
       orientation="1,0"
       position="45,17.946429"
       id="guide5438" />
    <sodipodi:guide
       orientation="1,0"
       position="59.977808,16.541248"
       id="guide5440" />
    <sodipodi:guide
       orientation="1,0"
       position="75,36.61803"
       id="guide5452" />
    <sodipodi:guide
       orientation="0,1"
       position="-41.163716,14.89975"
       id="guide5820" />
    <sodipodi:guide
       orientation="1,0"
       position="89.999999,35.892857"
       id="guide5933" />
    <sodipodi:guide
       orientation="1,0"
       position="105.53571,31.428571"
       id="guide5935" />
    <sodipodi:guide
       orientation="1,0"
       position="120,39.464285"
       id="guide5937" />
    <sodipodi:guide
       orientation="1,0"
       position="135,30.178571"
       id="guide5939" />
    <sodipodi:guide
       orientation="1,0"
       position="150,48.487322"
       id="guide3872" />
    <sodipodi:guide
       orientation="1,0"
       position="165,57.326157"
       id="guide3874" />
    <sodipodi:guide
       orientation="1,0"
       position="180,50.760165"
       id="guide3876" />
    <sodipodi:guide
       orientation="1,0"
       position="195,56.82108"
       id="guide3878" />
    <sodipodi:guide
       orientation="1,0"
       position="210,41.416254"
       id="guide3880" />
  </sodipodi:namedview>
  <metadata
     id="metadata5400">
    <rdf:RDF>
      <cc:Work
         rdf:about="">
        <dc:format>image/svg+xml</dc:format>
        <dc:type
           rdf:resource="http://purl.org/dc/dcmitype/StillImage" />
        <dc:title></dc:title>
      </cc:Work>
    </rdf:RDF>
  </metadata>
  <g
     inkscape:label="Layer 1"
     inkscape:groupmode="layer"
     id="layer1"
     transform="translate(0,-1037.3622)">
    <g
       id="g3962"
       transform="matrix(0.45804715,0,0,0.47757471,-89.470107,1004.0326)"
       style="stroke:#4d4d4d;stroke-width:2.56569767000000000;stroke-miterlimit:4;stroke-opacity:1;stroke-dasharray:none"
       inkscape:export-filename="G:\xampplite\htdocs\public_html\wp-content\themes\cowobo\images\icons.png"
       inkscape:export-xdpi="90.05455"
       inkscape:export-ydpi="90.05455">
      <path
         transform="matrix(-0.45371433,1.0076273,-1.0076273,-0.45371433,130.21221,-373.44069)"
         d="m 349.66432,-262.56042 c 0,4.34458 -3.75942,7.86656 -8.39689,7.86656 -4.63748,0 -8.3969,-3.52198 -8.3969,-7.86656 0,-4.34459 3.75942,-7.86657 8.3969,-7.86657 4.63747,0 8.39689,3.52198 8.39689,7.86657 z"
         sodipodi:ry="7.8665628"
         sodipodi:rx="8.3968935"
         sodipodi:cy="-262.56042"
         sodipodi:cx="341.26743"
         id="path3882"
         style="fill:none;stroke:#4d4d4d;stroke-width:2.32176113000000010;stroke-miterlimit:4;stroke-opacity:1;stroke-dasharray:none"
         sodipodi:type="arc" />
      <path
         sodipodi:type="arc"
         style="fill:none;stroke:#4d4d4d;stroke-width:2.32176113000000010;stroke-miterlimit:4;stroke-opacity:1;stroke-dasharray:none"
         id="path3884"
         sodipodi:cx="341.26743"
         sodipodi:cy="-262.56042"
         sodipodi:rx="8.3968935"
         sodipodi:ry="7.8665628"
         d="m 349.66432,-262.56042 c 0,4.34458 -3.75942,7.86656 -8.39689,7.86656 -4.63748,0 -8.3969,-3.52198 -8.3969,-7.86656 0,-4.34459 3.75942,-7.86657 8.3969,-7.86657 4.63747,0 8.39689,3.52198 8.39689,7.86657 z"
         transform="matrix(-0.45371433,1.0076273,-1.0076273,-0.45371433,139.10024,-381.13974)" />
    </g>
    <path
       style="fill:none;stroke:#4d4d4d;stroke-width:1.20000005000000010;stroke-linejoin:round;stroke-miterlimit:4;stroke-opacity:1;stroke-dasharray:none"
       d="m 37.524508,1038.9035 c -2.134139,0 -3.853101,1.6375 -3.853101,3.6434 0,0.9071 0.351602,1.7228 0.936449,2.3594 -3.951511,1.7834 -3.216098,6.3314 -3.216098,6.3314 l 12.294903,0 c 0,0 0.152251,-5.1004 -3.460394,-6.0924 0.718559,-0.6596 1.166605,-1.5795 1.166605,-2.5984 0,-2.006 -1.734224,-3.6434 -3.868364,-3.6434 z"
       id="path3886"
       inkscape:connector-curvature="0"
       sodipodi:nodetypes="ssccccss"
       inkscape:export-filename="G:\xampplite\htdocs\public_html\wp-content\themes\cowobo\images\icons.png"
       inkscape:export-xdpi="90.05455"
       inkscape:export-ydpi="90.05455" />
    <g
       id="g3956"
       transform="matrix(0.46873211,0,0,0.47739334,-95.355813,1004.048)"
       style="stroke:#4d4d4d;stroke-width:2.53676771999999980;stroke-miterlimit:4;stroke-opacity:1;stroke-dasharray:none"
       inkscape:export-filename="G:\xampplite\htdocs\public_html\wp-content\themes\cowobo\images\icons.png"
       inkscape:export-xdpi="90.05455"
       inkscape:export-ydpi="90.05455">
      <rect
         ry="6.30616"
         y="73.133621"
         x="302.34064"
         height="25.743971"
         width="26.263302"
         id="rect3910"
         style="fill:none;stroke:#4d4d4d;stroke-width:2.53676771999999980;stroke-linecap:round;stroke-miterlimit:4;stroke-opacity:1;stroke-dasharray:none" />
      <path
         transform="matrix(0.05087748,0,0,0.05087748,281.28279,106.21191)"
         d="m 570.63516,-275.90704 c 0,13.08256 -10.60551,23.68807 -23.68808,23.68807 -13.08256,0 -23.68808,-10.60551 -23.68808,-23.68807 0,-13.08257 10.60552,-23.68808 23.68808,-23.68808 13.08257,0 23.68808,10.60551 23.68808,23.68808 z"
         sodipodi:ry="23.688078"
         sodipodi:rx="23.688078"
         sodipodi:cy="-275.90704"
         sodipodi:cx="546.94708"
         id="path3912"
         style="fill:none;stroke:#4d4d4d;stroke-width:49.86032867000000800;stroke-miterlimit:4;stroke-opacity:1;stroke-dasharray:none"
         sodipodi:type="arc" />
      <path
         inkscape:transform-center-y="-9.0419607"
         inkscape:transform-center-x="-8.0231629"
         sodipodi:open="true"
         sodipodi:end="6.2831852"
         sodipodi:start="4.6927999"
         transform="matrix(1.4408181,0,0,1.4408181,-163.75126,406.65853)"
         d="m 326.55185,-227.64486 c 6.19838,-0.12143 11.32161,4.8049 11.44304,11.00329 0.001,0.0733 0.002,0.14658 0.002,0.21988"
         sodipodi:ry="11.22532"
         sodipodi:rx="11.22532"
         sodipodi:cy="-216.42169"
         sodipodi:cx="326.77173"
         id="path3922"
         style="fill:none;stroke:#4d4d4d;stroke-width:1.76064408000000010;stroke-linecap:butt;stroke-miterlimit:4;stroke-opacity:1;stroke-dasharray:none"
         sodipodi:type="arc" />
      <path
         sodipodi:type="arc"
         style="fill:none;stroke:#4d4d4d;stroke-width:2.85744308999999990;stroke-linecap:butt;stroke-miterlimit:4;stroke-opacity:1;stroke-dasharray:none"
         id="path3924"
         sodipodi:cx="326.77173"
         sodipodi:cy="-216.42169"
         sodipodi:rx="11.22532"
         sodipodi:ry="11.22532"
         d="m 326.44936,-227.64238 c 6.19701,-0.17804 11.36502,4.7013 11.54306,10.89832 0.004,0.15104 0.006,0.30215 0.004,0.45325"
         transform="matrix(0.88777546,0,0,0.88777546,17.170469,286.61733)"
         sodipodi:start="4.6836667"
         sodipodi:end="6.2948451"
         sodipodi:open="true"
         inkscape:transform-center-x="-4.9435585"
         inkscape:transform-center-y="-5.5712968" />
    </g>
    <g
       id="g3906"
       style="stroke:#efefef;stroke-width:1.20000005000000010;stroke-miterlimit:4;stroke-opacity:1;stroke-dasharray:none"
       transform="translate(0,0.12626912)">
      <path
         transform="matrix(-0.20222492,0.46825585,-0.44910934,-0.21084621,20.648424,827.767)"
         d="m 349.66432,-262.56042 c 0,4.34458 -3.75942,7.86656 -8.39689,7.86656 -4.63748,0 -8.3969,-3.52198 -8.3969,-7.86656 0,-4.34459 3.75942,-7.86657 8.3969,-7.86657 4.63747,0 8.39689,3.52198 8.39689,7.86657 z"
         sodipodi:ry="7.8665628"
         sodipodi:rx="8.3968935"
         sodipodi:cy="-262.56042"
         sodipodi:cx="341.26743"
         id="path5448"
         style="fill:none;stroke:#efefef;stroke-width:2.38602805000000020;stroke-miterlimit:4;stroke-opacity:1;stroke-dasharray:none"
         sodipodi:type="arc" />
      <rect
         ry="0.30045882"
         transform="matrix(0.63740212,0.77053133,-0.68633924,0.72728154,0,0)"
         y="620.07324"
         x="771.39459"
         height="5.8310189"
         width="1.947961"
         id="rect5454"
         style="fill:none;stroke:#efefef;stroke-width:1.20457602000000000;stroke-miterlimit:4;stroke-opacity:1;stroke-dasharray:none" />
    </g>
    <path
       sodipodi:type="arc"
       style="fill:none;stroke:#4d4d4d;stroke-width:1.20000005000000010;stroke-linecap:round;stroke-linejoin:round;stroke-miterlimit:4;stroke-opacity:1;stroke-dasharray:none"
       id="path6003"
       sodipodi:cx="1.767767"
       sodipodi:cy="12.790291"
       sodipodi:rx="2.0203052"
       sodipodi:ry="2.0834396"
       d="m 3.7880721,12.790291 c 0,1.150652 -0.9045214,2.083439 -2.0203051,2.083439 -1.11578378,0 -2.0203052,-0.932787 -2.0203052,-2.083439 0,-1.150652 0.90452142,-2.08344 2.0203052,-2.08344 1.1157837,0 2.0203051,0.932788 2.0203051,2.08344 z"
       transform="translate(1.6414979,1036.4783)" />
    <path
       style="fill:#ffffff;fill-opacity:1;stroke:#4d4d4d;stroke-width:1.20000005000000010;stroke-linecap:round;stroke-linejoin:round;stroke-miterlimit:4;stroke-opacity:1;stroke-dasharray:none"
       d="m 9.0710125,1038.684 4.5782405,5.9832 -6.4177614,5.6296 -3.984008,-1.5045 -0.594178,-4.4784 z"
       id="rect6000"
       inkscape:connector-curvature="0"
       sodipodi:nodetypes="cccccc" />
    <path
       inkscape:connector-curvature="0"
       id="path3962"
       d="m 77.439183,1039.2334 -0.692009,1 2.968944,4.1875 -2.968944,4.1563 0.692009,0.9687 3.16985,-4.4375 2.857327,0 -2.477838,3.4688 0.714331,0.9687 3.169849,-4.4375 10.201559,0 0,3.5625 10.089939,-3.7812 -10.089939,-5.1563 0,3.875 -10.246205,0 -3.125203,-4.375 -0.714331,1 2.41087,3.375 -2.835005,0 -3.125204,-4.375 z"
       style="fill:#f6f6f6;fill-opacity:1;stroke:none" />
    <g
       style="opacity:0.62389377;stroke-width:1.4554354;stroke-miterlimit:4;stroke-dasharray:none"
       transform="matrix(0.62136627,0,0,0.75974252,11.745406,213.75583)"
       id="g19867">
      <rect
         style="fill:none;stroke:#000000;stroke-width:1.4554354;stroke-linecap:round;stroke-linejoin:round;stroke-miterlimit:4;stroke-opacity:1;stroke-dasharray:none"
         id="rect19869"
         width="20.152544"
         height="15.733126"
         x="152.91183"
         y="58.941124"
         transform="translate(0,1027.3622)"
         ry="2.75" />
      <path
         style="fill:none;stroke:#000000;stroke-width:1.4554354;stroke-linecap:butt;stroke-linejoin:miter;stroke-miterlimit:4;stroke-opacity:1;stroke-dasharray:none"
         d="m 153.00023,62.211494 c 1.59099,0.795496 9.01561,5.126525 10.51821,5.126525 1.50261,0 9.54595,-5.568466 9.54595,-5.568466"
         id="path19871"
         inkscape:connector-curvature="0"
         transform="translate(0,1027.3622)" />
    </g>
    <path
       sodipodi:nodetypes="cccc"
       inkscape:connector-curvature="0"
       id="path5029"
       d="m 136.86647,1049.0187 10.625,0 -5.1562,-5.6875 z"
       style="fill:#afafaf;fill-opacity:1;stroke:none" />
    <flowRoot
       xml:space="preserve"
       id="flowRoot3060"
       style="font-size:40px;font-style:normal;font-weight:normal;line-height:125%;letter-spacing:0px;word-spacing:0px;fill:#3d3d3d;fill-opacity:1;stroke:none;font-family:Sans"
       transform="matrix(0.44011634,0,0,0.44011634,-22.177119,852.45189)"><flowRegion
         id="flowRegion3062"><rect
           id="rect3064"
           width="121.78571"
           height="85.714287"
           x="394.28571"
           y="419.28571"
           style="fill:#3d3d3d;fill-opacity:1" /></flowRegion><flowPara
         id="flowPara3066"
         style="font-weight:bold;fill:#3d3d3d;fill-opacity:1;-inkscape-font-specification:Sans Bold">A</flowPara></flowRoot>    <flowRoot
       transform="matrix(0.44011634,0,0,0.44011634,-5.9941029,852.45189)"
       style="font-size:40px;font-style:normal;font-weight:normal;line-height:125%;letter-spacing:0px;word-spacing:0px;fill:#3d3d3d;fill-opacity:1;stroke:none;font-family:Sans"
       id="flowRoot3068"
       xml:space="preserve"><flowRegion
         id="flowRegion3070"><rect
           y="419.28571"
           x="394.28571"
           height="85.714287"
           width="121.78571"
           id="rect3072"
           style="fill:#3d3d3d;fill-opacity:1" /></flowRegion><flowPara
         style="font-style:oblique;font-weight:normal;fill:#3d3d3d;fill-opacity:1;-inkscape-font-specification:Sans Oblique"
         id="flowPara3074">A </flowPara></flowRoot>    <path
       sodipodi:type="arc"
       style="fill:#3d3d3d;fill-opacity:1;stroke:none"
       id="path3076"
       sodipodi:cx="496.60715"
       sodipodi:cy="428.75"
       sodipodi:rx="6.6071429"
       sodipodi:ry="4.8214288"
       d="m 503.21429,428.75 c 0,2.6628 -2.95812,4.82143 -6.60714,4.82143 -3.64903,0 -6.60715,-2.15863 -6.60715,-4.82143 0,-2.6628 2.95812,-4.82143 6.60715,-4.82143 3.64902,0 6.60714,2.15863 6.60714,4.82143 z"
       transform="matrix(0.23790072,0,0,0.35209307,64.760157,889.76745)" />
    <path
       transform="matrix(0.23790072,0,0,0.35209307,64.760157,894.67946)"
       d="m 503.21429,428.75 c 0,2.6628 -2.95812,4.82143 -6.60714,4.82143 -3.64903,0 -6.60715,-2.15863 -6.60715,-4.82143 0,-2.6628 2.95812,-4.82143 6.60715,-4.82143 3.64902,0 6.60714,2.15863 6.60714,4.82143 z"
       sodipodi:ry="4.8214288"
       sodipodi:rx="6.6071429"
       sodipodi:cy="428.75"
       sodipodi:cx="496.60715"
       id="path3846"
       style="fill:#3d3d3d;fill-opacity:1;stroke:none"
       sodipodi:type="arc" />
    <path
       sodipodi:type="arc"
       style="fill:#3d3d3d;fill-opacity:1;stroke:none"
       id="path3848"
       sodipodi:cx="496.60715"
       sodipodi:cy="428.75"
       sodipodi:rx="6.6071429"
       sodipodi:ry="4.8214288"
       d="m 503.21429,428.75 c 0,2.6628 -2.95812,4.82143 -6.60714,4.82143 -3.64903,0 -6.60715,-2.15863 -6.60715,-4.82143 0,-2.6628 2.95812,-4.82143 6.60715,-4.82143 3.64902,0 6.60714,2.15863 6.60714,4.82143 z"
       transform="matrix(0.23790072,0,0,0.35209307,64.760157,899.35569)" />
    <path
       style="font-size:medium;font-style:normal;font-variant:normal;font-weight:normal;font-stretch:normal;text-indent:0;text-align:start;text-decoration:none;line-height:normal;letter-spacing:normal;word-spacing:normal;text-transform:none;direction:ltr;block-progression:tb;writing-mode:lr-tb;text-anchor:start;baseline-shift:baseline;color:#000000;fill:#3d3d3d;fill-opacity:1;stroke:none;stroke-width:1.1933105;marker:none;visibility:visible;display:inline;overflow:visible;enable-background:accumulate;font-family:Sans;-inkscape-font-specification:Sans"
       d="m 186.3125,1044.9635 0,1.1875 7.28125,0 0,-1.1875 -7.28125,0 z"
       id="path3852"
       inkscape:connector-curvature="0" />
    <path
       style="font-size:medium;font-style:normal;font-variant:normal;font-weight:normal;font-stretch:normal;text-indent:0;text-align:start;text-decoration:none;line-height:normal;letter-spacing:normal;word-spacing:normal;text-transform:none;direction:ltr;block-progression:tb;writing-mode:lr-tb;text-anchor:start;baseline-shift:baseline;color:#000000;fill:#3d3d3d;fill-opacity:1;stroke:none;stroke-width:1.1933105;marker:none;visibility:visible;display:inline;overflow:visible;enable-background:accumulate;font-family:Sans;-inkscape-font-specification:Sans"
       d="m 186.3125,1039.8385 0,1.1875 7.28125,0 0,-1.1875 -7.28125,0 z"
       id="path3856"
       inkscape:connector-curvature="0" />
    <path
       style="font-size:medium;font-style:normal;font-variant:normal;font-weight:normal;font-stretch:normal;text-indent:0;text-align:start;text-decoration:none;line-height:normal;letter-spacing:normal;word-spacing:normal;text-transform:none;direction:ltr;block-progression:tb;writing-mode:lr-tb;text-anchor:start;baseline-shift:baseline;color:#000000;fill:#3d3d3d;fill-opacity:1;stroke:none;stroke-width:1.1933105;marker:none;visibility:visible;display:inline;overflow:visible;enable-background:accumulate;font-family:Sans;-inkscape-font-specification:Sans"
       d="m 186.3125,1049.6822 0,1.1876 7.28125,0 0,-1.1876 -7.28125,0 z"
       id="path3858"
       inkscape:connector-curvature="0" />
    <path
       style="font-size:medium;font-style:normal;font-variant:normal;font-weight:normal;font-stretch:normal;text-indent:0;text-align:start;text-decoration:none;line-height:normal;letter-spacing:normal;word-spacing:normal;text-transform:none;direction:ltr;block-progression:tb;writing-mode:lr-tb;text-anchor:start;baseline-shift:baseline;color:#000000;fill:#3d3d3d;fill-opacity:1;stroke:none;stroke-width:3.40050149;marker:none;visibility:visible;display:inline;overflow:visible;enable-background:accumulate;font-family:Sans;-inkscape-font-specification:Sans"
       d="m 204.17207,1039.7824 c -0.80051,-0.8172 -1.84736,-1.2564 -2.95721,-1.275 -1.10986,-0.019 -2.34677,0.406 -3.33121,1.3703 -0.98443,0.9643 -1.42435,2.1823 -1.42877,3.2923 -0.004,1.11 0.40303,2.1755 1.20354,2.9928 0.80051,0.8172 1.85115,1.2402 2.96101,1.2587 1.10986,0.019 2.34297,-0.3897 3.32741,-1.354 0.98443,-0.9643 1.42815,-2.1985 1.43256,-3.3085 0.004,-1.11 -0.40682,-2.1594 -1.20733,-2.9766 z m -1.08227,1.0601 c 0.68589,0.7002 1.01621,1.6111 1.01285,2.4573 -0.003,0.8462 -0.32048,1.5716 -0.83434,2.075 -0.51386,0.5033 -1.23568,0.7956 -2.08178,0.7814 -0.84609,-0.014 -1.74993,-0.3632 -2.43582,-1.0634 -0.68589,-0.7002 -1.01621,-1.611 -1.01285,-2.4573 0.003,-0.8462 0.31046,-1.5618 0.82432,-2.0651 0.51386,-0.5034 1.2457,-0.8054 2.0918,-0.7913 0.84609,0.014 1.74993,0.3632 2.43582,1.0634 z"
       id="path3860"
       inkscape:connector-curvature="0" />
    <path
       style="font-size:medium;font-style:normal;font-variant:normal;font-weight:normal;font-stretch:normal;text-indent:0;text-align:start;text-decoration:none;line-height:normal;letter-spacing:normal;word-spacing:normal;text-transform:none;direction:ltr;block-progression:tb;writing-mode:lr-tb;text-anchor:start;baseline-shift:baseline;color:#000000;fill:#3d3d3d;fill-opacity:1;stroke:none;stroke-width:3.40050149;marker:none;visibility:visible;display:inline;overflow:visible;enable-background:accumulate;font-family:Sans;-inkscape-font-specification:Sans"
       d="m 207.95853,1043.6479 c -0.80051,-0.8172 -1.84736,-1.2564 -2.95721,-1.2749 -1.10986,-0.019 -2.34677,0.4059 -3.33121,1.3702 -0.98443,0.9643 -1.42435,2.1824 -1.42877,3.2924 -0.004,1.11 0.40303,2.1755 1.20354,2.9927 0.80051,0.8172 1.85115,1.2403 2.96101,1.2588 1.10986,0.019 2.34297,-0.3898 3.32741,-1.3541 0.98443,-0.9643 1.42815,-2.1985 1.43256,-3.3085 0.004,-1.11 -0.40682,-2.1594 -1.20733,-2.9766 z m -1.08227,1.0601 c 0.68589,0.7003 1.01621,1.6111 1.01285,2.4573 -0.003,0.8462 -0.32048,1.5717 -0.83434,2.075 -0.51386,0.5034 -1.23568,0.7956 -2.08178,0.7815 -0.84609,-0.014 -1.74993,-0.3632 -2.43582,-1.0634 -0.68589,-0.7003 -1.01621,-1.6111 -1.01285,-2.4573 0.003,-0.8462 0.31046,-1.5619 0.82432,-2.0652 0.51386,-0.5033 1.2457,-0.8054 2.0918,-0.7913 0.84609,0.014 1.74993,0.3632 2.43582,1.0634 z"
       id="path3862"
       inkscape:connector-curvature="0" />
    <path
       style="fill:#afafaf;fill-opacity:1;stroke:none"
       d="m 121.66367,1043.3312 10.625,0 -5.1562,5.6875 z"
       id="path6369"
       inkscape:connector-curvature="0"
       sodipodi:nodetypes="cccc" />
  </g>
</svg>
